<?xml version="1.0" encoding="utf-8"?>
<!-- Generator: Adobe Illustrator 23.0.3, SVG Export Plug-In . SVG Version: 6.00 Build 0)  -->
<svg version="1.1" id="Calque_1" xmlns="http://www.w3.org/2000/svg" xmlns:xlink="http://www.w3.org/1999/xlink" x="0px" y="0px"
	 viewBox="0 0 47.8 47.9" style="enable-background:new 0 0 47.8 47.9;" xml:space="preserve">
<style type="text/css">
	.st0{fill:#0D0D5B;}
</style>
<g>
	<path class="st0" d="M16.2,36c-1.9-1.1-3.4,0.2-5.3,1.8c2.7,3.5,5.3,3.6,7.4,3.8C18.4,38,17.4,36.7,16.2,36z"/>
	<path class="st0" d="M25.2,28.7c-0.5-0.8-0.9-1.5-1.6-2.6c2.1,0.3,3.8,0.6,5.5,0.9c0.4-2.1,0.8-3.8,1-5c-0.6-1.9-1-3.2-1.5-4.8
		c-2.4,0.8-4,2.4-4.6,4.8c-0.3,1.2-0.3,2.4-0.6,3.6c-0.7,2.6-1,5,0.2,7.6c0,0.1-1.3,1.1-1.6,0.4c-0.8-1.6-1.1-3.3-0.8-5.1
		c0.2-1.7,0.5-3.4,0.8-5.1c0.2-1.3-0.1-2.2-1.7-2.9c-0.5,0.6-1.2,1.2-2,2.1c1.2,0.9,1.5,1.5,2.5,2.4c-1.7,3.4-2.6,5.8-4.2,8.7
		c3.8,1.6,7.5,3.1,11.2,4.6c0.3,0.1,2,0.7,2.3,0.7C27,36.2,24.7,32.7,25.2,28.7z"/>
	<path class="st0" d="M36.6,38.2L30.2,36C33.2,39.2,34.9,39.8,36.6,38.2z"/>
	<path class="st0" d="M21.8,19.2l1,0.6c1.8-3.1,4.7-4.4,7.7-5.3c0.1-0.5,0.1-0.9,0.1-1.4c0-0.2-0.2-0.3-0.3-0.5
		C26.7,13.5,21.5,17.5,21.8,19.2z"/>
	<path class="st0" d="M26.8,11.9L24.4,11l0,0c-4.3-1.3-9,1.5-9.7,5.8c-0.3,1.9-0.6,3.9-0.8,6h2.9l-0.3-0.5
		C19.3,18.5,22.1,14.7,26.8,11.9z"/>
	<path class="st0" d="M39.4,11.4L39.4,11.4L39.4,11.4L39.4,11.4z"/>
	<path class="st0" d="M24.1,0.8c-12.7,0-23,10.3-23,23s10.3,23,23,23s23-10.3,23-23l0,0C47.1,11.1,36.8,0.8,24.1,0.8z M24.3,43.8
		c2.1-0.5,4.9-1.6,7.2-2.2l-11.7-4.7c0.2,1.1,0.5,1.8,0.6,2.5c0.1,0.7,0.4,2.3,0.9,4c0,0,0,0.1,0.1,0.1c-4.9-0.7-9.4-3.1-12.5-6.9
		c2-2,4.2-4,5.9-4.8c0,0,2.2-6.8,2.1-7c-1.1,1.7-5,7.1-8.2,11.5c-0.7-0.9-1.4-1.8-1.9-2.8c3.3-4.1,7-9.1,7-9.1s-4,2.9-8.5,5.6
		c-0.4-1-0.6-2.1-0.8-3.2c3.8-2.1,7.1-3.8,7.3-3.9c0.3-0.2,0-1,0-1s-3.6,0.4-7.6,0.9c0-1,0.2-1.9,0.3-2.9c3.8-0.1,7.1-0.2,8-0.2
		v-2.3c-0.7-0.2-3.5-0.7-6.9-1.4C6,15.4,6.3,14.7,6.7,14c3,0.9,5.5,1.6,6.2,1.8l0.9-2c-0.8-0.5-2.8-1.6-4.9-2.9
		c0.8-0.9,1.7-1.8,2.7-2.6c1.5,1.9,2.7,3.6,3.1,3.9c0.8-0.6,1.4-1.1,2.2-1.6c-0.3-0.5-1.3-2.2-2.4-4.2c0.8-0.4,1.5-0.8,2.3-1.1
		c0.8,2.1,1.4,3.9,1.6,4.3l2.5-0.6c-0.1-0.5-0.4-2.3-0.8-4.6c0.8-0.2,1.6-0.3,2.4-0.3c0.1,2.4,0.2,4.2,0.2,4.5l2,0.8
		c0.2-0.5,0.6-2.6,1.1-5.4c1,0.1,2,0.2,2.9,0.5c-1.2,2.7-2,4.7-2.2,5.2l1.7,1.3c0.5-0.6,1.9-2.8,3.7-5.5c0.6,0.3,1.3,0.6,1.9,0.9
		l-0.1,0.1l-0.5,0.5c-1.3,1.3-2.5,2.3-2.9,2.9L30,10.3l0.5,0.4c1.4,1,1.5,2.4,1.5,3.9c0,0.2,0,0.3,0,0.5l-2,1.4l1.9,5.4
		c-0.4,1.8-0.9,3.7-1.4,5.7l-4.2,0.9l0.3,3c0.2,1.4,1.1,2.6,2.5,3c2.9,0.8,7.3,2.1,9.8,2.8C35.2,41.4,29.9,43.8,24.3,43.8L24.3,43.8
		z M39.8,36.2l-0.4-0.1V25.6l1.7-4.2l-2.6-6.2L36,21.5l1.7,4.2v10c-2.5-0.7-5.9-1.7-8.2-2.3c-0.9-0.3-1.5-1-1.6-1.9l-0.2-1.8
		l3.9-0.8l0.1-0.4c0.6-2.3,1.1-4.3,1.6-6.3l0-0.2L31.6,17l1.8-1.3l0-0.4c0-0.3,0-0.6-0.1-0.8c-0.1-1.5-0.2-3.2-1.5-4.5
		c0.6-0.6,1.5-1.5,2.4-2.3l0.5-0.5c0.1-0.1,0.2-0.2,0.3-0.3c9.3,5.9,12,18.3,6.1,27.6C40.6,35.1,40.3,35.7,39.8,36.2L39.8,36.2z"/>
</g>
</svg>
