<?xml version="1.0" encoding="utf-8"?>
<!-- Generator: Adobe Illustrator 23.0.3, SVG Export Plug-In . SVG Version: 6.00 Build 0)  -->
<svg version="1.1" id="Calque_1" xmlns="http://www.w3.org/2000/svg" xmlns:xlink="http://www.w3.org/1999/xlink" x="0px" y="0px"
	 viewBox="0 0 854.7 854.7" style="enable-background:new 0 0 854.7 854.7;" xml:space="preserve">
<style type="text/css">
	.st0{fill:#627EEA;}
	.st1{fill:#C1CCF6;}
	.st2{fill:#FFFFFF;}
	.st3{fill:#8198EE;}
	.st4{fill:#FEFFFF;}
</style>
<g>
	<path class="st0" d="M0,441.3c0-9.3,0-18.7,0-28c0.6-1.1,0.6-2.4,0.7-3.6c1-12.1,1.7-24.3,3.3-36.4c3.5-27.4,9.6-54.2,18.3-80.4
		c19.6-58.9,50.6-111,92.8-156.5c34.9-37.5,75.2-67.7,121-90.6C291.8,17.8,351,2.9,413.3,0.7c9.4,0,18.7,0,28.1,0
		c6.9,0.3,13.9,0.7,20.8,1.2c21,1.6,41.8,4.9,62.3,9.7c54.3,12.7,104.2,35.1,149.7,67.3c51.1,36.2,92.4,81.5,123.5,135.8
		c35.3,61.7,54.4,128.1,56.4,199.2c-0.2,8.9-0.2,17.8,0,26.7c0,8.2-0.6,16.4-1.3,24.5c-1.9,21.8-5.5,43.3-10.8,64.6
		c-18.3,73.4-53.5,137.6-105.6,192.4c-40.1,42.2-87.1,74.7-140.7,97.7c-44.1,18.9-90.1,30-138,33.5c-6.4-0.2-12.8,0.8-19.2,0.8
		c-2,0-4.1,0-6,0.5c-3.4,0-6.8,0-10.2,0c-1.9-0.5-3.8-0.5-5.7-0.5c-6.5,0-13-1.1-19.6-0.8c-8.4-0.7-16.8-1.5-25.1-2.6
		c-23.3-3-46.2-7.9-68.6-14.8c-66.5-20.4-124.8-54.8-174.5-103.5C76,680.7,39.1,619.2,18,548.4C8.6,516.6,3,484.2,1.2,451.1
		C1,447.8,1,444.5,0,441.3z M440.7,108.1c-0.5-0.2-0.7,0-0.8,0.5c-0.7,0.9-1.4,1.8-2,2.7c-24,33.2-48,66.4-72,99.7
		c-40.7,56.4-81.5,112.8-122.2,169.2c-0.6,0.9-1.4,1.6-1.7,2.9c1.5-0.1,2.4-0.9,3.3-1.4c10.7-6.2,21.5-12.5,32.2-18.7
		c54.3-31.5,108.7-63.1,163-94.6c0.9,0.4,1.9,0.8,2.8,1.3c18.3,10.6,36.6,21.2,54.9,31.8c46.1,26.7,92.1,53.5,138.2,80.2
		c0.9,0.5,1.8,1.3,3.4,1.3c-0.7-1.1-1.2-1.9-1.7-2.6c-11.9-16.5-23.9-33-35.8-49.5c-26.9-37.3-53.9-74.5-80.8-111.8
		c-25.9-35.8-51.7-71.6-77.6-107.4c-0.8-1.2-1.4-2.6-2.9-3.3C441,108.2,440.9,108.2,440.7,108.1z M440.7,305.9
		c-0.2-0.2-0.5-0.2-0.7,0c-2.5,1.4-4.9,2.8-7.4,4.3c-60.8,35.3-121.5,70.5-182.3,105.8c-2.7,1.5-5.3,3.1-8,4.7
		c-1,0.6-1.8,1.2-0.7,2.4c0.6,1,1.1,2,1.7,2.9c42.7,69.6,85.4,139.3,128.2,208.9c22.9,37.2,45.7,74.5,68.6,111.7
		c0.3,0.5,0.7,0.6,1.1,0.2c0.6-0.7,1-1.5,1.5-2.3c22-35.8,43.9-71.6,65.9-107.3c42.6-69.4,85.2-138.9,127.7-208.3
		c1.4-2.2,3-4.3,3.9-6.8c-0.7-1.6-2.3-2.2-3.6-3c-22.7-13.2-45.4-26.4-68.1-39.5c-14.2-8.2-28.3-16.4-42.5-24.7
		c-10.9-6.3-21.8-12.7-32.7-19.1c-15.1-8.8-30.3-17.6-45.5-26.3c-2.2-1.3-4.3-2.9-7-3.5L440.7,305.9z"/>
	<path class="st1" d="M441.3,0c0,0.2,0,0.4,0,0.6c-9.4,0-18.7,0-28.1,0c0-0.2,0.1-0.4,0-0.7C422.7,0,432,0,441.3,0z"/>
	<path class="st1" d="M457.7,853.4c-1.5,0.7-3.1,0.5-4.6,0.7c-1.2,0.1-2.5-0.1-3.6,0.7c-5.7,0-11.4,0-17.1,0c2-0.5,4-0.5,6-0.5
		C444.9,854.2,451.3,853.1,457.7,853.4z"/>
	<path class="st1" d="M854.7,440.7c-0.2,0-0.4,0-0.6,0c-0.2-8.9-0.2-17.8,0-26.7c0.2,0,0.4,0,0.6,0
		C854.7,422.9,854.7,431.8,854.7,440.7z"/>
	<path class="st1" d="M405.1,854.7c-1.3-0.9-2.8-0.5-4.2-0.7c-1.3-0.1-2.7,0-4-0.6c6.5-0.2,13,0.8,19.6,0.8c1.9,0,3.8,0,5.7,0.5
		C416.5,854.7,410.8,854.7,405.1,854.7z"/>
	<path class="st1" d="M640.2,422c-0.8,2.5-2.5,4.6-3.9,6.8c-42.6,69.5-85.2,138.9-127.7,208.3c-22,35.8-43.9,71.6-65.9,107.3
		c-0.5,0.8-0.9,1.6-1.5,2.3c-0.3,0.4-0.8,0.3-1.1-0.2c0.9-1.6,0.5-3.3,0.5-5c0-75.4,0-150.8,0-226.2c0-1.6-0.1-3.2-0.2-4.8
		c2.2-0.4,4.1-1.3,6.1-2.2c14-6.3,28.1-12.5,42.1-18.8c14-6.3,28-12.6,42.1-18.9c11.6-5.2,23.3-10.4,34.9-15.6
		c16.2-7.2,32.4-14.5,48.6-21.7C622.9,429.6,631.6,425.8,640.2,422z"/>
	<path class="st2" d="M440.5,510.6c0.1,1.6,0.2,3.2,0.2,4.8c0,75.4,0,150.8,0,226.2c0,1.7,0.4,3.4-0.5,5
		c-22.9-37.2-45.7-74.5-68.6-111.7c-42.7-69.6-85.5-139.3-128.2-208.9c-0.6-1-1.1-2-1.7-2.9c1.3-0.7,2.4,0.1,3.5,0.6
		c4.8,2.1,9.6,4.3,14.3,6.4c16.2,7.3,32.4,14.6,48.6,21.8c22.4,10,44.9,20,67.3,30c18.3,8.2,36.5,16.4,54.8,24.5
		c3.3,1.5,6.5,3.4,10.1,4.1L440.5,510.6z"/>
	<path class="st3" d="M640.2,422c-8.6,3.8-17.3,7.6-25.9,11.4c-16.2,7.2-32.4,14.5-48.6,21.7c-11.6,5.2-23.3,10.4-34.9,15.6
		c-14,6.3-28,12.6-42.1,18.9c-14,6.3-28.1,12.5-42.1,18.8c-2,0.9-3.9,1.8-6.1,2.2c0,0-0.1-0.1-0.1-0.1c0.4-1.8,0.3-3.6,0.3-5.4
		c0-64.6,0-129.3,0-193.9c0-1.7,0.1-3.4,0.1-5.1c2.6,0.6,4.7,2.2,7,3.5c15.2,8.7,30.3,17.5,45.5,26.3c10.9,6.3,21.8,12.7,32.7,19.1
		c14.2,8.2,28.3,16.4,42.5,24.7c22.7,13.2,45.4,26.4,68.1,39.5C638,419.9,639.5,420.5,640.2,422z"/>
	<path class="st1" d="M440.9,306c0,1.7-0.1,3.4-0.1,5.1c0,64.6,0,129.3,0,193.9c0,1.8,0.2,3.6-0.3,5.4c-3.7-0.6-6.8-2.6-10.1-4.1
		c-18.3-8.1-36.6-16.4-54.8-24.5c-22.4-10-44.9-20-67.3-30c-16.2-7.2-32.4-14.5-48.6-21.8c-4.8-2.1-9.5-4.3-14.3-6.4
		c-1.1-0.5-2.2-1.3-3.5-0.6c-1.1-1.2-0.3-1.8,0.7-2.4c2.6-1.6,5.3-3.1,8-4.7c60.8-35.3,121.5-70.5,182.3-105.8
		c2.5-1.4,4.9-2.9,7.4-4.3c0.2,0,0.5,0,0.7,0L440.9,306z"/>
	<path class="st1" d="M441,108.4c1.4,0.7,2,2.1,2.9,3.3c25.9,35.8,51.8,71.6,77.6,107.4c26.9,37.3,53.9,74.5,80.8,111.8
		c11.9,16.5,23.9,33,35.8,49.5c0.5,0.7,1,1.5,1.7,2.6c-1.6-0.1-2.5-0.8-3.4-1.3c-46.1-26.7-92.1-53.5-138.2-80.2
		c-18.3-10.6-36.6-21.2-54.9-31.8c-0.9-0.5-1.8-0.9-2.8-1.3c0-1.8,0.1-3.6,0.1-5.5c0-49.7,0-99.4,0-149
		C440.7,112,440.5,110.2,441,108.4z"/>
	<path class="st4" d="M441,108.4c-0.5,1.8-0.3,3.6-0.3,5.4c0,49.7,0,99.4,0,149c0,1.8-0.1,3.6-0.1,5.5
		c-54.3,31.5-108.7,63.1-163,94.6c-10.7,6.2-21.5,12.5-32.2,18.7c-0.9,0.5-1.8,1.4-3.3,1.4c0.3-1.2,1.1-2,1.7-2.9
		c40.7-56.4,81.5-112.8,122.2-169.2c24-33.2,48-66.4,72-99.7c0.7-0.9,1.4-1.8,2-2.7c0.3-0.2,0.5-0.3,0.8-0.5
		C440.9,108.2,441,108.2,441,108.4z"/>
	<path class="st1" d="M440.7,108.1c-0.3,0.2-0.5,0.3-0.8,0.5C440,108.2,440.3,107.9,440.7,108.1z"/>
	<path class="st3" d="M440.7,305.9c-0.2,0-0.5,0-0.7,0C440.2,305.7,440.4,305.7,440.7,305.9z"/>
</g>
</svg>
