<?xml version="1.0" encoding="utf-8"?>
<!-- Generator: Adobe Illustrator 23.0.3, SVG Export Plug-In . SVG Version: 6.00 Build 0)  -->
<svg version="1.1" id="Calque_1" xmlns="http://www.w3.org/2000/svg" xmlns:xlink="http://www.w3.org/1999/xlink" x="0px" y="0px"
	 viewBox="0 0 959 360" style="enable-background:new 0 0 959 360;" xml:space="preserve">
<style type="text/css">
	.st0{fill-rule:evenodd;clip-rule:evenodd;fill:#FFFFFF;}
	.st1{fill:#FFFFFF;}
</style>
<title>kleros-logo-fullwhite</title>
<desc>Created with Sketch.</desc>
<g id="kleros-logo-fullwhite">
	<path id="Combined-Shape" class="st0" d="M126.3,25.7l173.2,7.8l70.1,156L270.6,332L96.5,320.8l-71.4-169L126.3,25.7z M253.2,115.6
		l-125.5,54.9L235,253.6L253.2,115.6z M238.7,88.1L138.4,44.9l-21.1,90.9L238.7,88.1z M213.3,274.5l-109-77.9l2.6,105.6L213.3,274.5
		z M352.1,189.1l-74.3-75.5l-19.6,145.1L352.1,189.1z M238.8,291.5l-91.9,24.1l108.1,6.9L238.8,291.5z M337.6,223.3l-80.5,60
		l16,31.3L337.6,223.3z M299.5,55.3l-15.6,32.1l58.2,59.2L299.5,55.3z M280.1,39.9l-102.2-4.2l84.3,36.9L280.1,39.9z M111.3,54.8
		l-71.6,90.5l47.8,10.1L111.3,54.8z M84.7,173.1l-48.1-10.2l50.2,118.3L84.7,173.1z"/>
	<g id="kleros-logo" transform="translate(36.000000, 35.000000)">
		<g id="Group">
		</g>
		<g transform="translate(393.000000, 103.000000)">
			<polygon id="Path" class="st0" points="10.7,35.2 14.4,35.2 41.1,0 48.7,6 22.9,38.8 53.2,75.4 45.6,81.9 14.1,43.4 10.7,43.4 
				10.7,79.9 0.7,79.9 0.7,2 10.7,2 			"/>
			<polygon class="st0" points="91.3,2 101.3,2 101.3,70.9 142,70.9 142,79.9 91.3,79.9 			"/>
			<polygon class="st0" points="178.8,2 227.3,2 227.3,11 188.8,11 188.8,34.3 220.6,34.3 220.6,43.3 188.8,43.3 188.8,70.9 
				227.3,70.9 227.3,79.9 178.8,79.9 			"/>
			<path id="Shape" class="st1" d="M267.1,2h26.4c13,0,23.3,6.1,23.3,21.2c0,9.6-6.4,19-15.8,21.8L320,76.6l-8.6,5.2l-19.8-35.3
				h-14.5v33.4h-10V2z M290.2,37.6c9.7,0,16.1-5.5,16.1-14.4c0-7-4.2-12.3-13.1-12.3h-16.1v26.6H290.2z"/>
			<path class="st1" d="M406.6,41c0,6.3-0.4,40.2-27.6,40.2c-12.5,0-27.6-9-27.6-40.2c0-31.1,14.8-40.4,27.6-40.4
				C391.4,0.6,406.6,9.6,406.6,41z M361.9,41c0,11.4,2.1,30.8,17.1,30.8c15.1,0,17.1-19.4,17.1-30.8c0-11.5-2.1-31-17.1-31
				C364,10.1,361.9,29.5,361.9,41z"/>
			<path class="st0" d="M452.2,55.2c1.9,9.6,6.6,16.6,17,16.6c8.2,0,14.6-4.5,14.6-13.2c0-9.6-8-12-15.7-15.1
				c-11.3-4.8-22.1-7.8-22.1-22.4c0-13.2,10.6-20.5,22.8-20.5c13,0,20.6,7.5,23.7,19.6l-9.5,2.8c-1.8-7.6-5.8-13-14.3-13
				c-6.4,0-12.7,3.3-12.7,10.3c0,7.3,4.5,9.4,10.4,12.1l16.5,7.3c7,3.9,10.7,10.2,10.7,18.3c0,14.8-10.3,23.2-24.6,23.2
				c-14.5,0-23.6-9.3-25.9-23.2L452.2,55.2z"/>
		</g>
	</g>
</g>
</svg>
