<?xml version="1.0" encoding="utf-8"?>
<!-- Generator: Adobe Illustrator 23.0.3, SVG Export Plug-In . SVG Version: 6.00 Build 0)  -->
<svg version="1.1" id="Calque_1" xmlns="http://www.w3.org/2000/svg" xmlns:xlink="http://www.w3.org/1999/xlink" x="0px" y="0px"
	 viewBox="0 0 854.7 854.7" style="enable-background:new 0 0 854.7 854.7;" xml:space="preserve">
<style type="text/css">
	.st0{fill:#02A478;}
	.st1{fill:#F9FCFB;}
</style>
<g>
	<path class="st0" d="M427.9,854C193.6,854,2.5,662.7,2.9,428.7C3.3,193.8,193.5,3.8,428.1,3.8C662.8,3.9,853,194.2,852.9,429
		C852.9,663.5,662.3,854.1,427.9,854z M437.1,184.5c-62,0-123.9,0.4-185.9-0.3c-12.5-0.1-15.5,3.7-15,15.5
		c0.9,23.2,0.6,46.5,0.1,69.7c-0.2,8.2,2.4,10.8,10.6,10.7c30-0.4,60-0.5,90,0c13.8,0.2,32.3-6.3,40.2,2.9
		c6.8,7.9,1.2,25.9,2.6,39.2c1.4,12.9-4.5,15-15.6,15.5c-40.2,1.9-79.9,7.5-118.9,17.8c-20.6,5.5-41.1,11.7-58.2,25.1
		c-16.7,13.1-16.5,27.5,0.4,40.5c14,10.8,30.5,16.6,47.2,21.6c41.9,12.6,85.1,18.4,128.6,20.9c12.5,0.7,16.8,4.1,16.6,17.5
		c-0.9,56.6,0,113.3-0.7,169.9c-0.1,11.9,3.6,14.5,14.7,14.3c28.5-0.7,57.1-0.7,85.7,0c10.1,0.2,13.2-2.7,13.1-13
		c-0.5-55.7-0.2-111.3-0.2-167c0-20.9,0-20.7,20.6-22.3c46.4-3.6,92.3-10,136.3-26.2c12.8-4.7,25.2-10.3,34.9-20.2
		c10.4-10.5,10.4-21.2,0-31.8c-10.1-10.3-23-16-36.2-20.8c-36.6-13.4-74.8-19.3-113.3-24c-13.3-1.6-30.8,3.2-38.8-5.9
		c-8-9-1.2-26-2.7-39.3c-1.3-11.5,3.7-13.6,14-13.5c39.2,0.6,78.4,0,117.6,0.4c9.1,0.1,12.9-1.9,12.6-12c-0.7-24.2-0.7-48.4,0-72.6
		c0.3-10.5-3.3-12.9-13.2-12.8C562,184.7,499.5,184.5,437.1,184.5z"/>
	<path class="st1" d="M437.1,184.5c62.4,0,124.9,0.2,187.3-0.2c9.9-0.1,13.5,2.3,13.2,12.8c-0.8,24.2-0.7,48.4,0,72.6
		c0.3,10.1-3.5,12.1-12.6,12c-39.2-0.4-78.4,0.2-117.6-0.4c-10.4-0.1-15.3,2-14,13.5c1.5,13.3-5.4,30.3,2.7,39.3
		c8,9.1,25.5,4.3,38.8,5.9c38.5,4.7,76.7,10.6,113.3,24c13.2,4.8,26.1,10.5,36.2,20.8c10.4,10.6,10.4,21.2,0,31.8
		c-9.7,9.8-22.1,15.5-34.9,20.2c-44,16.2-89.9,22.6-136.3,26.2c-20.5,1.6-20.6,1.4-20.6,22.3c0,55.7-0.3,111.3,0.2,167
		c0.1,10.3-3,13.2-13.1,13c-28.5-0.6-57.1-0.7-85.7,0c-11.1,0.3-14.8-2.4-14.7-14.3c0.7-56.6-0.2-113.3,0.7-169.9
		c0.2-13.4-4.1-16.8-16.6-17.5c-43.5-2.5-86.6-8.4-128.6-20.9c-16.7-5-33.2-10.8-47.2-21.6c-16.9-13-17.2-27.4-0.4-40.5
		c17.1-13.4,37.6-19.7,58.2-25.1c38.9-10.3,78.7-15.9,118.9-17.8c11.1-0.5,17-2.6,15.6-15.5c-1.4-13.4,4.2-31.4-2.6-39.2
		c-7.9-9.2-26.4-2.6-40.2-2.9c-30-0.5-60-0.4-90,0c-8.3,0.1-10.8-2.5-10.6-10.7c0.5-23.2,0.8-46.5-0.1-69.7
		c-0.5-11.8,2.5-15.6,15-15.5C313.2,184.9,375.1,184.5,437.1,184.5z M433.5,433.9c35.3,0.5,70.6-0.5,105.8-3.6
		c39-3.4,78-7.1,115.3-20.3c5.3-1.9,13.2-3.3,13.7-9.3c0.5-6-7.2-8.4-12-11.1c-48.2-26.1-100.8-35.4-154.5-40.8
		c-8.4-0.8-8.1,4.3-8.1,9.9c0,17.4-0.6,34.8,0,52.2c0.3,8.9-2.7,11.9-11.5,11.6c-30.5-0.8-60.9-1.2-91.4-1.3
		c-7.9,0-9.7-3.3-9.7-10.5c-0.1-17.9-1.1-35.7-1.4-53.5c-0.1-5.7,0.3-10-8.2-9.2c-46.9,4.2-93,11.7-136.9,29.4
		c-10.2,4.1-19.9,9.8-29.6,15.3c-8.8,5-9.7,10.5,0.8,14.5c9,3.4,18.1,6.9,27.5,9C299.1,431.6,366.2,433.8,433.5,433.9z"/>
	<path class="st0" d="M433.5,433.9c-67.3-0.2-134.4-2.3-200.3-17.7c-9.4-2.2-18.5-5.6-27.5-9c-10.5-4-9.6-9.5-0.8-14.5
		c9.7-5.5,19.3-11.1,29.6-15.3c43.9-17.7,90-25.2,136.9-29.4c8.6-0.8,8.1,3.5,8.2,9.2c0.4,17.9,1.3,35.7,1.4,53.5
		c0,7.2,1.9,10.5,9.7,10.5c30.5,0.1,60.9,0.6,91.4,1.3c8.7,0.2,11.8-2.7,11.5-11.6c-0.6-17.4,0-34.8,0-52.2c0-5.6-0.2-10.8,8.1-9.9
		c53.7,5.4,106.3,14.7,154.5,40.8c4.9,2.6,12.5,5.1,12,11.1c-0.5,6-8.3,7.4-13.7,9.3c-37.3,13.2-76.3,16.9-115.3,20.3
		C504.1,433.4,468.8,434.5,433.5,433.9z"/>
</g>
</svg>
