<?xml version="1.0" encoding="UTF-8" standalone="no"?><!DOCTYPE svg PUBLIC "-//W3C//DTD SVG 1.1//EN" "http://www.w3.org/Graphics/SVG/1.1/DTD/svg11.dtd"><svg width="100%" height="100%" viewBox="0 0 48 48" version="1.1" xmlns="http://www.w3.org/2000/svg" xmlns:xlink="http://www.w3.org/1999/xlink" xml:space="preserve" xmlns:serif="http://www.serif.com/" style="fill-rule:evenodd;clip-rule:evenodd;stroke-linejoin:round;stroke-miterlimit:1.41421;"><g><path d="M16.2,36c-1.9,-1.1 -3.4,0.2 -5.3,1.8c2.7,3.5 5.3,3.6 7.4,3.8c0.1,-3.6 -0.9,-4.9 -2.1,-5.6Z" style="fill:#fff;fill-rule:nonzero;"/><path d="M25.2,28.7c-0.5,-0.8 -0.9,-1.5 -1.6,-2.6c2.1,0.3 3.8,0.6 5.5,0.9c0.4,-2.1 0.8,-3.8 1,-5c-0.6,-1.9 -1,-3.2 -1.5,-4.8c-2.4,0.8 -4,2.4 -4.6,4.8c-0.3,1.2 -0.3,2.4 -0.6,3.6c-0.7,2.6 -1,5 0.2,7.6c0,0.1 -1.3,1.1 -1.6,0.4c-0.8,-1.6 -1.1,-3.3 -0.8,-5.1c0.2,-1.7 0.5,-3.4 0.8,-5.1c0.2,-1.3 -0.1,-2.2 -1.7,-2.9c-0.5,0.6 -1.2,1.2 -2,2.1c1.2,0.9 1.5,1.5 2.5,2.4c-1.7,3.4 -2.6,5.8 -4.2,8.7c3.8,1.6 7.5,3.1 11.2,4.6c0.3,0.1 2,0.7 2.3,0.7c-3.1,-2.8 -5.4,-6.3 -4.9,-10.3Z" style="fill:#fff;fill-rule:nonzero;"/><path d="M36.6,38.2l-6.4,-2.2c3,3.2 4.7,3.8 6.4,2.2Z" style="fill:#fff;fill-rule:nonzero;"/><path d="M21.8,19.2l1,0.6c1.8,-3.1 4.7,-4.4 7.7,-5.3c0.1,-0.5 0.1,-0.9 0.1,-1.4c0,-0.2 -0.2,-0.3 -0.3,-0.5c-3.6,0.9 -8.8,4.9 -8.5,6.6Z" style="fill:#fff;fill-rule:nonzero;"/><path d="M26.8,11.9l-2.4,-0.9c-4.3,-1.3 -9,1.5 -9.7,5.8c-0.3,1.9 -0.6,3.9 -0.8,6l2.9,0l-0.3,-0.5c2.8,-3.8 5.6,-7.6 10.3,-10.4Z" style="fill:#fff;fill-rule:nonzero;"/><path d="M24.1,0.8c-12.7,0 -23,10.3 -23,23c0,12.7 10.3,23 23,23c12.7,0 23,-10.3 23,-23c0,-12.7 -10.3,-23 -23,-23Zm0.2,43c2.1,-0.5 4.9,-1.6 7.2,-2.2l-11.7,-4.7c0.2,1.1 0.5,1.8 0.6,2.5c0.1,0.7 0.4,2.3 0.9,4c0,0 0,0.1 0.1,0.1c-4.9,-0.7 -9.4,-3.1 -12.5,-6.9c2,-2 4.2,-4 5.9,-4.8c0,0 2.2,-6.8 2.1,-7c-1.1,1.7 -5,7.1 -8.2,11.5c-0.7,-0.9 -1.4,-1.8 -1.9,-2.8c3.3,-4.1 7,-9.1 7,-9.1c0,0 -4,2.9 -8.5,5.6c-0.4,-1 -0.6,-2.1 -0.8,-3.2c3.8,-2.1 7.1,-3.8 7.3,-3.9c0.3,-0.2 0,-1 0,-1c0,0 -3.6,0.4 -7.6,0.9c0,-1 0.2,-1.9 0.3,-2.9c3.8,-0.1 7.1,-0.2 8,-0.2l0,-2.3c-0.7,-0.2 -3.5,-0.7 -6.9,-1.4c0.4,-0.6 0.7,-1.3 1.1,-2c3,0.9 5.5,1.6 6.2,1.8l0.9,-2c-0.8,-0.5 -2.8,-1.6 -4.9,-2.9c0.8,-0.9 1.7,-1.8 2.7,-2.6c1.5,1.9 2.7,3.6 3.1,3.9c0.8,-0.6 1.4,-1.1 2.2,-1.6c-0.3,-0.5 -1.3,-2.2 -2.4,-4.2c0.8,-0.4 1.5,-0.8 2.3,-1.1c0.8,2.1 1.4,3.9 1.6,4.3l2.5,-0.6c-0.1,-0.5 -0.4,-2.3 -0.8,-4.6c0.8,-0.2 1.6,-0.3 2.4,-0.3c0.1,2.4 0.2,4.2 0.2,4.5l2,0.8c0.2,-0.5 0.6,-2.6 1.1,-5.4c1,0.1 2,0.2 2.9,0.5c-1.2,2.7 -2,4.7 -2.2,5.2l1.7,1.3c0.5,-0.6 1.9,-2.8 3.7,-5.5c0.6,0.3 1.3,0.6 1.9,0.9l-0.1,0.1l-0.5,0.5c-1.3,1.3 -2.5,2.3 -2.9,2.9l-0.3,0.4l0.5,0.4c1.4,1 1.5,2.4 1.5,3.9c0,0.2 0,0.3 0,0.5l-2,1.4l1.9,5.4c-0.4,1.8 -0.9,3.7 -1.4,5.7l-4.2,0.9l0.3,3c0.2,1.4 1.1,2.6 2.5,3c2.9,0.8 7.3,2.1 9.8,2.8c-3.7,4.1 -9,6.5 -14.6,6.5Zm15.5,-7.6l-0.4,-0.1l0,-10.5l1.7,-4.2l-2.6,-6.2l-2.5,6.3l1.7,4.2l0,10c-2.5,-0.7 -5.9,-1.7 -8.2,-2.3c-0.9,-0.3 -1.5,-1 -1.6,-1.9l-0.2,-1.8l3.9,-0.8l0.1,-0.4c0.6,-2.3 1.1,-4.3 1.6,-6.3l0,-0.2l-1.7,-5l1.8,-1.3l0,-0.4c0,-0.3 0,-0.6 -0.1,-0.8c-0.1,-1.5 -0.2,-3.2 -1.5,-4.5c0.6,-0.6 1.5,-1.5 2.4,-2.3l0.5,-0.5c0.1,-0.1 0.2,-0.2 0.3,-0.3c9.3,5.9 12,18.3 6.1,27.6c-0.5,0.6 -0.8,1.2 -1.3,1.7Z" style="fill:#fff;fill-rule:nonzero;"/></g></svg>