<?xml version="1.0" encoding="utf-8"?>
<!-- Generator: Adobe Illustrator 23.0.3, SVG Export Plug-In . SVG Version: 6.00 Build 0)  -->
<svg version="1.1" id="Calque_1" xmlns="http://www.w3.org/2000/svg" xmlns:xlink="http://www.w3.org/1999/xlink" x="0px" y="0px"
	 viewBox="0 0 325.9 324.3" style="enable-background:new 0 0 325.9 324.3;" xml:space="preserve">
<style type="text/css">
	.st0{fill:#FFFFFF;}
	.st1{enable-background:new    ;}
</style>
<g>
	<path class="st0" d="M120.4,187.5c-10.3-5.7-18.3,1.1-28.4,9.8c14.4,18.3,28.2,19,39.4,20.2C132.3,198.3,127.5,191.2,120.4,187.5z"
		/>
	<path class="st0" d="M168.9,148.6l-8.2-14l29.5,4.6c2.3-11,4.1-20.2,5.3-26.6l-8.2-25.4c-13.1,4.4-21.5,12.6-24.7,25.9
		c-1.6,6.2-1.6,12.8-3.2,19.2c-3.7,13.5-5.5,26.8,0.9,40.3c0.2,0.5-6.9,6-8.7,2.3c-4.4-8.2-6-17.9-4.6-27c1.4-9.2,3-18.1,4.6-27
		c1.1-6.9-0.7-11.9-9.4-15.6l-11,11c6.2,4.8,7.8,8,13.5,12.6c-8.9,18.1-14,31.1-22.2,46c20.4,8.5,40.1,16.5,59.8,24.5
		c1.6,0.7,10.5,3.4,12.1,3.7C178.3,188.9,166.2,169.9,168.9,148.6z"/>
	<path class="st0" d="M229.1,199.2l-33.9-11.4C211.5,204.7,220.4,208.2,229.1,199.2z"/>
	<path class="st0" d="M150.6,98l5.5,3.4c9.6-16.5,25-23.4,41-28.6c0.5-2.5,0.5-4.8,0.7-7.3c0-0.9-1.1-1.8-1.6-2.5
		C176.7,68,149,88.9,150.6,98z"/>
	<path class="st0" d="M176.9,59.1l-12.6-4.8l0,0c-22.9-6.9-47.9,7.8-52,31.1c-1.8,10.3-3,20.8-4.4,31.6h15.6l-1.4-2.5
		C137.1,94.3,152.4,74.2,176.9,59.1z"/>
	<path class="st0" d="M244.5,56.6L244.5,56.6L244.5,56.6z"/>
	<path class="st0" d="M163,0C95.4,0,40.4,55,40.4,122.5S95.4,245,163,245s122.5-55,122.5-122.5l0,0C285.7,55,230.7,0,163,0z
		 M164.1,229.2c11.2-2.5,26.1-8.2,38.5-11.9l-62.5-25c1.1,4.6,2.3,8.9,3,13.5c1.1,7.3,3,14.4,5,21.5c0,0.2,0.2,0.5,0.2,0.7
		c-26.1-3.7-49.9-16.7-66.9-36.9c10.3-10.5,22.4-21.1,31.6-25.4c0,0,11.7-36.4,11-37.1c-5.7,9.2-26.3,38-43.7,61.4
		c-3.9-4.8-7.3-9.6-10.3-15.1c17.4-21.8,37.1-48.5,37.1-48.5S86,142,62,156.6c-1.8-5.5-3.2-11.2-4.1-17.2c20.4-11,38-20.4,38.7-20.8
		c1.6-1.1,0.2-5.5,0.2-5.5s-19,2.3-40.3,4.8c0.2-5,0.9-10.3,1.8-15.3c20.2-0.7,38-1.1,42.8-1.1V89.3c-3.9-0.9-18.8-3.9-36.6-7.3
		c1.6-3.9,3.4-7.8,5.7-11.7c15.8,4.6,29.5,8.5,33,9.4c1.8-4.4,3.2-7.1,4.8-10.5c-4.4-2.3-14.7-8.7-26.1-15.6c4.4-5,8.9-9.6,14.2-14
		c7.8,10.3,14.4,19,16.7,20.8l11.4-8.7c-1.6-2.7-6.9-11.9-13.1-22.4c4.1-2.3,8.2-4.1,12.6-6c4.1,11.4,7.3,20.6,8.5,22.7l13.5-3.4
		c-0.5-2.5-2.1-12.4-4.4-24.7c4.1-0.9,8.2-1.4,12.6-1.8c0.5,12.6,0.9,22.2,1.1,24.3l10.8,4.4c0.7-2.7,3-14,5.7-28.6
		c5.3,0.5,10.3,1.1,15.6,2.3c-6.2,14.2-11,25.2-11.7,27.9l8.9,6.6c2.5-3.4,10.3-15.1,19.9-29.1c3.4,1.6,6.9,3.2,10.1,5l-0.5,0.2
		l-2.5,2.5c-5.5,4.8-10.5,10.1-15.3,15.8l-2.1,3l2.7,2.1c7.3,5.3,7.8,12.6,8.2,21.1c0,0.9,0,1.8,0.2,2.7l-10.8,7.6l9.8,29.1
		c-2.3,9.6-4.8,19.7-7.6,30.7l-22.4,4.6l1.8,16c0.7,7.6,6.2,14,13.5,16c15.3,4.4,39.2,11,52.2,14.7
		C221.8,216.4,193.6,229,164.1,229.2z M246.5,188.9l-2.3-0.7v-55.9l9.2-22.2l-13.7-33.2l-13.7,33.2l9.2,22.2v53.4
		c-13.3-3.7-31.6-8.9-44-12.4c-4.6-1.4-8-5.3-8.5-10.1l-0.9-9.8l20.6-4.1l0.5-2.1c3-12.1,5.7-23.1,8.5-33.7l0.2-0.9l-8.9-26.1
		l9.8-6.9l-0.2-2.3c-0.2-1.4-0.2-3-0.2-4.4c-0.5-8-0.9-16.9-8.2-23.8c3-3.2,7.8-7.8,12.6-12.4l2.5-2.5l1.8-1.6
		c49.5,31.8,64.1,97.8,32.3,147.2C250.9,183.2,248.8,185.9,246.5,188.9z"/>
</g>
<g>
	<path class="st0" d="M23.8,300.1c-0.3-1.1-0.7-2.2-1.1-3.3l-1.2-3.4h-12l-1.2,3.4c-0.4,1.1-0.8,2.2-1.1,3.3H0
		c1.1-3.3,2.2-6.4,3.3-9.2c1-2.8,2.1-5.4,3.1-7.9s2-4.8,2.9-7.1c0.9-2.3,2-4.4,3-6.5h6.6c1,2.1,2,4.3,3,6.5c1,2.2,2,4.6,3,7.1
		s2,5.1,3.1,7.9c1.1,2.8,2.1,5.9,3.3,9.2H23.8z M15.5,276.3c-0.1,0.4-0.4,1-0.7,1.8l-1,2.7c-0.4,1-0.8,2.1-1.3,3.3
		c-0.5,1.2-0.9,2.5-1.4,3.8h8.8c-0.5-1.3-0.9-2.6-1.4-3.8c-0.5-1.2-0.9-2.3-1.3-3.3s-0.8-1.9-1-2.7C16,277.3,15.7,276.8,15.5,276.3
		L15.5,276.3z"/>
	<path class="st0" d="M61.4,269.4v5.9h-9.3v24.8h-6.9v-24.8h-9.3v-5.9H61.4z"/>
	<path class="st0" d="M91.4,269.4h6.9v30.7h-6.9v-13H79.8v13h-6.9v-30.7h6.9v11.7h11.6V269.4z"/>
	<path class="st0" d="M112.5,300.1v-30.7h20.7v5.8h-13.8v6h12.3v5.7h-12.3v7.4h14.8v5.8H112.5z"/>
	<path class="st0" d="M167.1,300.1c-2-3.5-4.1-7-6.4-10.4c-2.3-3.4-4.7-6.6-7.4-9.7v20.1h-6.8v-30.7h5.6c1,1,2,2.2,3.2,3.6
		s2.4,2.9,3.6,4.5s2.5,3.3,3.7,5s2.4,3.4,3.4,5v-18.1h6.9v30.7H167.1z"/>
	<path class="st0" d="M207.6,300.1c-0.3-1.1-0.7-2.2-1.1-3.3l-1.2-3.4h-12l-1.2,3.4c-0.4,1.1-0.8,2.2-1.1,3.3h-7.2
		c1.2-3.3,2.3-6.4,3.3-9.2c1-2.8,2-5.5,3-7.9s2-4.8,2.9-7.1c0.9-2.3,2-4.4,3-6.5h6.7c1,2.1,2,4.3,3,6.5c1,2.2,2,4.6,3,7.1
		s2,5.1,3,7.9c1,2.8,2.1,5.9,3.3,9.2H207.6z M199.3,276.3c-0.1,0.4-0.4,1-0.7,1.8l-1,2.7c-0.4,1-0.8,2.1-1.3,3.3
		c-0.5,1.2-1,2.5-1.4,3.8h8.8c-0.5-1.3-0.9-2.6-1.4-3.8c-0.5-1.2-0.9-2.3-1.3-3.3s-0.7-1.9-1-2.7
		C199.7,277.3,199.5,276.8,199.3,276.3z"/>
	<path class="st0" d="M243.8,269.4h6.9v30.7h-6.9V269.4z"/>
	<path class="st0" d="M285.5,300.1c-2-3.5-4.1-7-6.4-10.4c-2.3-3.4-4.7-6.6-7.4-9.7v20.1h-6.8v-30.7h5.6c1,1,2.1,2.2,3.2,3.6
		c1.1,1.4,2.4,2.9,3.6,4.5s2.4,3.3,3.6,5s2.4,3.4,3.4,5v-18.1h6.9v30.7H285.5z"/>
	<path class="st0" d="M313.8,294.8c0.8,0,1.6-0.1,2.4-0.3c0.5-0.1,1.1-0.3,1.5-0.7c0.4-0.2,0.6-0.6,0.8-1c0.2-0.4,0.3-0.8,0.3-1.3
		c0-1-0.5-2-1.4-2.5c-1.5-0.9-3.2-1.7-4.9-2.2c-1-0.4-2-0.8-3-1.2s-1.9-1-2.7-1.7c-0.8-0.7-1.5-1.5-2-2.5c-0.5-1.1-0.8-2.4-0.8-3.6
		c0-1.3,0.3-2.6,0.8-3.8c0.5-1.1,1.3-2.1,2.3-2.9c1.1-0.8,2.3-1.5,3.5-1.8c1.5-0.4,3.1-0.7,4.7-0.6c3.2-0.1,6.3,0.7,9.1,2.1l-2,5.5
		c-0.9-0.5-1.9-0.9-2.9-1.2c-1.2-0.4-2.5-0.6-3.8-0.6c-1.2-0.1-2.5,0.1-3.6,0.7c-0.7,0.4-1.1,1.3-1.1,2.1c0,0.5,0.1,1,0.4,1.4
		c0.3,0.4,0.7,0.7,1.1,1c0.5,0.3,1.1,0.6,1.7,0.8c0.6,0.3,1.3,0.5,2.1,0.8c1.6,0.6,3,1.2,4.2,1.8c1.1,0.5,2.1,1.2,3,2
		c0.8,0.8,1.4,1.7,1.8,2.7c0.4,1.2,0.6,2.5,0.6,3.8c0.1,2.6-1,5.1-3,6.7c-2,1.6-5,2.4-9.1,2.4c-1.2,0-2.5-0.1-3.7-0.2
		c-1-0.1-1.9-0.3-2.9-0.6c-0.7-0.2-1.5-0.5-2.2-0.8c-0.5-0.2-1-0.5-1.5-0.8l2-5.5c1.1,0.6,2.2,1,3.4,1.3
		C310.5,294.6,312.2,294.8,313.8,294.8z"/>
</g>
<g>
	<g class="st1">
		<path class="st0" d="M19.2,313.6c1.6,0,2.7,0.3,3.6,0.8c0.8,0.5,1.2,1.4,1.2,2.7s-0.4,2.2-1.3,2.7s-2,0.8-3.6,0.8h-0.7v3.5h-2.3
			v-10.2c0.5-0.1,1-0.2,1.6-0.2C18.2,313.6,18.7,313.6,19.2,313.6z M19.3,315.6c-0.2,0-0.3,0-0.5,0s-0.3,0-0.4,0v3h0.7
			c0.8,0,1.4-0.1,1.8-0.3c0.4-0.2,0.6-0.6,0.6-1.2c0-0.3-0.1-0.5-0.2-0.7c-0.1-0.2-0.3-0.3-0.5-0.5c-0.2-0.1-0.4-0.2-0.7-0.2
			S19.7,315.6,19.3,315.6z"/>
	</g>
	<g class="st1">
		<path class="st0" d="M30.9,313.6c1.6,0,2.8,0.3,3.6,0.8s1.2,1.4,1.2,2.6c0,0.7-0.2,1.3-0.5,1.8s-0.8,0.8-1.4,1.1
			c0.2,0.3,0.4,0.6,0.7,0.9c0.2,0.3,0.5,0.7,0.7,1c0.2,0.4,0.4,0.7,0.7,1.1c0.2,0.4,0.4,0.8,0.6,1.2h-2.6c-0.2-0.3-0.4-0.7-0.6-1
			c-0.2-0.3-0.4-0.7-0.6-1c-0.2-0.3-0.4-0.6-0.6-0.9c-0.2-0.3-0.4-0.6-0.6-0.8h-1.2v3.8H28v-10.3c0.5-0.1,1-0.2,1.6-0.2
			C29.9,313.6,30.4,313.6,30.9,313.6z M31,315.6c-0.2,0-0.3,0-0.5,0c-0.1,0-0.3,0-0.4,0v2.9h0.7c0.9,0,1.5-0.1,1.9-0.3
			c0.4-0.2,0.6-0.6,0.6-1.1s-0.2-0.9-0.6-1.1C32.3,315.7,31.7,315.6,31,315.6z"/>
	</g>
	<g class="st1">
		<path class="st0" d="M49.5,318.9c0,0.9-0.1,1.7-0.4,2.3c-0.3,0.7-0.6,1.2-1.1,1.7s-1,0.8-1.6,1c-0.6,0.2-1.3,0.3-2,0.3
			s-1.4-0.1-2-0.3c-0.6-0.2-1.2-0.6-1.6-1c-0.5-0.5-0.8-1-1.1-1.7c-0.3-0.7-0.4-1.5-0.4-2.3c0-0.9,0.1-1.7,0.4-2.3s0.7-1.2,1.1-1.7
			c0.5-0.5,1-0.8,1.6-1c0.6-0.2,1.3-0.3,2-0.3s1.4,0.1,2,0.3c0.6,0.2,1.2,0.6,1.6,1c0.5,0.5,0.8,1,1.1,1.7
			C49.4,317.3,49.5,318,49.5,318.9z M41.6,318.9c0,0.5,0.1,1,0.2,1.4c0.1,0.4,0.3,0.8,0.5,1.1c0.2,0.3,0.5,0.5,0.9,0.7
			c0.4,0.2,0.7,0.2,1.2,0.2c0.4,0,0.8-0.1,1.2-0.2c0.3-0.2,0.6-0.4,0.9-0.7c0.3-0.3,0.4-0.6,0.5-1.1s0.2-0.9,0.2-1.4s-0.1-1-0.2-1.4
			s-0.3-0.8-0.5-1.1c-0.2-0.3-0.5-0.5-0.9-0.7c-0.3-0.2-0.7-0.2-1.2-0.2c-0.4,0-0.8,0.1-1.2,0.2c-0.3,0.2-0.6,0.4-0.9,0.7
			c-0.2,0.3-0.4,0.7-0.5,1.1S41.6,318.4,41.6,318.9z"/>
	</g>
	<g class="st1">
		<path class="st0" d="M61,313.7v2h-3.1v8.4h-2.4v-8.4h-3.1v-2H61z"/>
		<path class="st0" d="M64.6,324.1v-10.4h7v2h-4.7v2h4.2v1.9h-4.2v2.5h5v2H64.6z"/>
	</g>
	<g class="st1">
		<path class="st0" d="M80.5,324.3c-1.7,0-3-0.5-3.9-1.4c-0.9-0.9-1.3-2.3-1.3-4c0-0.9,0.1-1.6,0.4-2.3c0.3-0.7,0.6-1.2,1.1-1.7
			s1-0.8,1.7-1.1c0.6-0.2,1.4-0.4,2.1-0.4c0.4,0,0.8,0,1.2,0.1s0.7,0.1,0.9,0.2c0.2,0.1,0.5,0.2,0.7,0.3s0.3,0.2,0.4,0.2l-0.7,1.9
			c-0.3-0.2-0.7-0.3-1.1-0.4c-0.4-0.1-0.9-0.2-1.4-0.2c-0.4,0-0.7,0.1-1.1,0.2c-0.3,0.1-0.7,0.3-0.9,0.6c-0.3,0.3-0.5,0.6-0.6,1
			c-0.1,0.4-0.2,0.9-0.2,1.5c0,0.5,0.1,0.9,0.2,1.3s0.3,0.8,0.5,1.1c0.2,0.3,0.5,0.5,0.9,0.7c0.4,0.2,0.8,0.3,1.4,0.3
			c0.3,0,0.6,0,0.9-0.1s0.5-0.1,0.7-0.1s0.4-0.1,0.6-0.2c0.2-0.1,0.3-0.1,0.4-0.2l0.6,1.9c-0.3,0.2-0.8,0.4-1.4,0.5
			C82,324.3,81.3,324.3,80.5,324.3z"/>
	</g>
	<g class="st1">
		<path class="st0" d="M95.6,313.7v2h-3.1v8.4h-2.3v-8.4h-3.1v-2H95.6z"/>
		<path class="st0" d="M99.2,324.1v-10.4h7v2h-4.7v2h4.2v1.9h-4.2v2.5h5v2H99.2z"/>
		<path class="st0" d="M119.5,318.9c0,0.9-0.1,1.7-0.4,2.4c-0.3,0.7-0.7,1.2-1.2,1.7c-0.5,0.4-1.1,0.8-1.9,1
			c-0.7,0.2-1.6,0.3-2.5,0.3c-0.4,0-0.9,0-1.5-0.1c-0.6,0-1.1-0.1-1.6-0.2v-10.1c0.5-0.1,1.1-0.2,1.7-0.2c0.6,0,1.1-0.1,1.5-0.1
			c0.9,0,1.7,0.1,2.4,0.3c0.7,0.2,1.3,0.5,1.9,0.9c0.5,0.4,0.9,1,1.2,1.6C119.3,317.2,119.5,318,119.5,318.9z M112.7,322.2
			c0.1,0,0.2,0,0.4,0c0.1,0,0.3,0,0.5,0c1.2,0,2-0.3,2.6-0.9c0.6-0.6,0.8-1.4,0.8-2.4c0-1.1-0.3-1.9-0.8-2.5s-1.4-0.8-2.6-0.8
			c-0.2,0-0.3,0-0.5,0s-0.3,0-0.5,0v6.6H112.7z"/>
	</g>
	<g class="st1">
		<path class="st0" d="M132.7,324.3c-0.6,0-1.1,0-1.7-0.1c-0.6,0-1.2-0.1-1.8-0.2v-10.1c0.5-0.1,1-0.2,1.6-0.2s1.1-0.1,1.6-0.1
			c0.7,0,1.3,0,1.8,0.1c0.6,0.1,1,0.3,1.4,0.5c0.4,0.2,0.7,0.5,0.9,0.9c0.2,0.4,0.3,0.8,0.3,1.4c0,0.8-0.4,1.5-1.2,2
			c0.7,0.3,1.1,0.6,1.4,1c0.2,0.4,0.4,0.9,0.4,1.5c0,1.1-0.4,1.9-1.2,2.5C135.5,324,134.3,324.3,132.7,324.3z M131.5,317.8h1.1
			c0.7,0,1.2-0.1,1.5-0.3c0.3-0.2,0.5-0.5,0.5-0.9s-0.2-0.7-0.5-0.9c-0.3-0.2-0.8-0.3-1.4-0.3c-0.2,0-0.4,0-0.6,0
			c-0.2,0-0.4,0-0.6,0V317.8z M131.5,319.6v2.7c0.2,0,0.4,0,0.6,0c0.2,0,0.4,0,0.7,0c0.7,0,1.3-0.1,1.7-0.3s0.6-0.6,0.6-1.1
			s-0.2-0.8-0.5-1c-0.4-0.2-0.9-0.3-1.5-0.3C133.1,319.6,131.5,319.6,131.5,319.6z"/>
	</g>
	<g class="st1">
		<path class="st0" d="M144.7,318c0.4-0.7,0.8-1.4,1.2-2.1c0.4-0.7,0.7-1.4,1.1-2.1h2.6c-0.6,1.1-1.2,2.2-1.8,3.3
			c-0.6,1-1.3,2.1-1.9,3.2v4h-2.4v-3.9c-0.7-1.1-1.3-2.1-1.9-3.2s-1.2-2.2-1.8-3.3h2.7c0.3,0.7,0.7,1.4,1,2.1
			C143.9,316.6,144.3,317.3,144.7,318z"/>
		<path class="st0" d="M166.3,313.7v2h-3.1v8.4h-2.3v-8.4h-3.1v-2H166.3z"/>
		<path class="st0" d="M176.2,313.7h2.3v10.4h-2.3v-4.4h-3.9v4.4H170v-10.4h2.3v4h3.9V313.7z"/>
		<path class="st0" d="M183,324.1v-10.4h7v2h-4.7v2h4.2v1.9h-4.2v2.5h5v2H183z"/>
	</g>
	<g class="st1">
		<path class="st0" d="M204.7,324.3c-1.7,0-3-0.5-3.9-1.4c-0.9-0.9-1.3-2.3-1.3-4c0-0.9,0.1-1.6,0.4-2.3s0.6-1.2,1.1-1.7
			s1-0.8,1.7-1.1c0.7-0.2,1.4-0.4,2.1-0.4c0.4,0,0.8,0,1.2,0.1c0.4,0.1,0.7,0.1,0.9,0.2c0.3,0.1,0.5,0.2,0.7,0.3s0.3,0.2,0.4,0.2
			l-0.7,1.9c-0.3-0.2-0.7-0.3-1.1-0.4c-0.4-0.1-0.9-0.2-1.4-0.2c-0.4,0-0.7,0.1-1.1,0.2c-0.3,0.1-0.7,0.3-0.9,0.6
			c-0.3,0.3-0.5,0.6-0.6,1c-0.1,0.4-0.2,0.9-0.2,1.5c0,0.5,0.1,0.9,0.2,1.3s0.3,0.8,0.5,1.1c0.2,0.3,0.5,0.5,0.9,0.7
			c0.4,0.2,0.8,0.3,1.4,0.3c0.3,0,0.6,0,0.9-0.1c0.3,0,0.5-0.1,0.7-0.1s0.4-0.1,0.6-0.2c0.2-0.1,0.3-0.1,0.4-0.2l0.6,1.9
			c-0.3,0.2-0.8,0.4-1.4,0.5C206.2,324.3,205.5,324.3,204.7,324.3z"/>
	</g>
	<g class="st1">
		<path class="st0" d="M221.3,318.9c0,0.9-0.1,1.7-0.4,2.3c-0.3,0.7-0.6,1.2-1.1,1.7s-1,0.8-1.6,1c-0.6,0.2-1.3,0.3-2,0.3
			s-1.4-0.1-2-0.3c-0.6-0.2-1.2-0.6-1.6-1c-0.5-0.5-0.8-1-1.1-1.7c-0.3-0.7-0.4-1.5-0.4-2.3c0-0.9,0.1-1.7,0.4-2.3
			c0.3-0.7,0.7-1.2,1.1-1.7s1-0.8,1.7-1c0.6-0.2,1.3-0.3,2-0.3s1.4,0.1,2,0.3c0.6,0.2,1.2,0.6,1.6,1c0.4,0.4,0.8,1,1.1,1.7
			C221.1,317.2,221.3,318,221.3,318.9z M213.3,318.9c0,0.5,0.1,1,0.2,1.4c0.1,0.4,0.3,0.8,0.5,1.1c0.2,0.3,0.5,0.5,0.9,0.7
			c0.4,0.2,0.7,0.2,1.2,0.2c0.4,0,0.8-0.1,1.2-0.2s0.6-0.4,0.9-0.7c0.2-0.3,0.4-0.6,0.5-1.1s0.2-0.9,0.2-1.4s-0.1-1-0.2-1.4
			s-0.3-0.8-0.5-1.1c-0.2-0.3-0.5-0.5-0.9-0.7c-0.4-0.2-0.8-0.2-1.2-0.2s-0.8,0.1-1.2,0.2c-0.3,0.2-0.6,0.4-0.9,0.7
			s-0.4,0.7-0.5,1.1S213.3,318.4,213.3,318.9z"/>
		<path class="st0" d="M228.1,313.7c0.2,0.3,0.4,0.7,0.6,1.2s0.5,1,0.7,1.6c0.3,0.6,0.5,1.1,0.8,1.7c0.3,0.6,0.5,1.1,0.7,1.7
			c0.2-0.5,0.5-1.1,0.7-1.7c0.3-0.6,0.5-1.2,0.8-1.7c0.3-0.6,0.5-1.1,0.7-1.6s0.4-0.9,0.6-1.2h2.1c0.1,0.7,0.2,1.5,0.3,2.3
			c0.1,0.9,0.2,1.7,0.2,2.7s0.1,1.9,0.2,2.8s0.1,1.8,0.1,2.6h-2.3c0-1-0.1-2.1-0.1-3.3c-0.1-1.2-0.1-2.4-0.2-3.6
			c-0.2,0.4-0.4,0.9-0.6,1.4s-0.4,1-0.7,1.5c-0.2,0.5-0.4,1-0.6,1.5s-0.4,0.9-0.5,1.2H230c-0.1-0.3-0.3-0.7-0.5-1.2s-0.4-1-0.6-1.5
			s-0.4-1-0.7-1.5s-0.4-1-0.6-1.4c-0.1,1.2-0.2,2.4-0.2,3.6c0,1.2-0.1,2.3-0.1,3.3H225c0-0.8,0.1-1.7,0.1-2.6s0.1-1.9,0.2-2.8
			c0.1-0.9,0.1-1.8,0.2-2.7s0.2-1.6,0.3-2.3H228.1z"/>
		<path class="st0" d="M243.6,313.7c0.2,0.3,0.4,0.7,0.6,1.2s0.5,1,0.7,1.6c0.3,0.6,0.5,1.1,0.8,1.7c0.3,0.6,0.5,1.1,0.7,1.7
			c0.2-0.5,0.5-1.1,0.7-1.7c0.3-0.6,0.5-1.2,0.8-1.7c0.3-0.6,0.5-1.1,0.7-1.6s0.4-0.9,0.6-1.2h2.1c0.1,0.7,0.2,1.5,0.3,2.3
			c0.1,0.9,0.2,1.7,0.2,2.7c0.1,0.9,0.1,1.9,0.2,2.8s0.1,1.8,0.1,2.6h-2.3c0-1-0.1-2.1-0.1-3.3c0-1.2-0.1-2.4-0.2-3.6
			c-0.2,0.4-0.4,0.9-0.6,1.4s-0.4,1-0.7,1.5c-0.2,0.5-0.4,1-0.6,1.5s-0.4,0.9-0.5,1.2h-1.6c-0.1-0.3-0.3-0.7-0.5-1.2s-0.4-1-0.6-1.5
			s-0.4-1-0.7-1.5s-0.4-1-0.6-1.4c-0.1,1.2-0.2,2.4-0.2,3.6c0,1.2-0.1,2.3-0.1,3.3h-2.3c0-0.8,0.1-1.7,0.1-2.6
			c0.1-0.9,0.1-1.9,0.2-2.8c0.1-0.9,0.1-1.8,0.2-2.7s0.2-1.6,0.3-2.3H243.6z"/>
		<path class="st0" d="M260.5,324.3c-0.7,0-1.4-0.1-1.9-0.3s-1-0.5-1.3-0.9s-0.6-0.8-0.8-1.3c-0.2-0.5-0.2-1.1-0.2-1.7v-6.5h2.3v6.3
			c0,0.4,0,0.8,0.1,1.1c0.1,0.3,0.2,0.5,0.4,0.7c0.2,0.2,0.4,0.3,0.6,0.4s0.5,0.1,0.8,0.1c0.6,0,1-0.2,1.4-0.5
			c0.4-0.3,0.5-0.9,0.5-1.8v-6.3h2.3v6.5c0,0.6-0.1,1.2-0.3,1.7s-0.4,0.9-0.8,1.3c-0.4,0.4-0.8,0.6-1.3,0.8S261.2,324.3,260.5,324.3
			z"/>
		<path class="st0" d="M276.1,324.1c-0.7-1.2-1.4-2.4-2.2-3.5c-0.8-1.2-1.6-2.3-2.5-3.3v6.8h-2.3v-10.4h1.9c0.3,0.3,0.7,0.7,1.1,1.2
			s0.8,1,1.2,1.5s0.8,1.1,1.2,1.7c0.4,0.6,0.8,1.1,1.2,1.7v-6.1h2.3v10.4C278,324.1,276.1,324.1,276.1,324.1z"/>
		<path class="st0" d="M282.6,313.7h2.3v10.4h-2.3V313.7z"/>
	</g>
	<g class="st1">
		<path class="st0" d="M297.1,313.7v2H294v8.4h-2.3v-8.4h-3.2v-2H297.1z"/>
	</g>
	<g class="st1">
		<path class="st0" d="M305,318c0.4-0.7,0.8-1.4,1.2-2.1c0.4-0.7,0.7-1.4,1.1-2.1h2.6c-0.6,1.1-1.2,2.2-1.8,3.3
			c-0.6,1-1.3,2.1-1.9,3.2v4h-2.3v-3.9c-0.7-1.1-1.3-2.1-1.9-3.2s-1.2-2.2-1.8-3.3h2.7c0.3,0.7,0.7,1.4,1,2.1
			C304.2,316.7,304.6,317.3,305,318z"/>
	</g>
</g>
</svg>
